<?xml version="1.0" encoding="UTF-8"?>
<svg xmlns="http://www.w3.org/2000/svg" version="1.1" viewBox="0 0 516 128">
  <defs>
    <style>
      .cls-1 {
        fill: #333;
      }

      .cls-1, .cls-2, .cls-3, .cls-4, .cls-5 {
        stroke-width: 0px;
      }

      .cls-2 {
        fill: #b93e2d;
      }

      .cls-2, .cls-4, .cls-5 {
        fill-rule: evenodd;
      }

      .cls-3 {
        fill: none;
      }

      .cls-4 {
        fill: #421a13;
      }

      .cls-5 {
        fill: #cd837b;
      }
    </style>
  </defs>
  <g id="Assistant_BY_COWI" data-name="Assistant BY COWI">
    <g>
      <path class="cls-4" d="M110.3,124H21.7c-9.8,0-17.7-7.9-17.7-17.7V21.7C4,11.9,11.9,4,21.7,4h88.6c9.8,0,17.7,7.9,17.7,17.7v84.6c0,9.8-7.9,17.7-17.7,17.7"/>
      <path class="cls-2" d="M85.7,55.6c-1.9-.6-3.7.8-3.7,2.8,0,4.5-1.3,9-4,12.8-4,5.6-10.5,8.9-17.3,8.9s-.3,0-.5,0c-2,0-3.4,1.8-2.8,3.7l7.5,22.6c.3.9,1.5.9,1.8,0l9.2-27.5c.7-2.2,2.5-4,4.7-4.7l27.5-9.2c.9-.3.9-1.5,0-1.8l-22.6-7.5Z"/>
      <path class="cls-5" d="M66.9,21.7l10.5,31.5c4.6,13.7-8.5,26.8-22.2,22.2l-31.5-10.5c-.9-.3-.9-1.5,0-1.8l27.5-9.2c2.2-.7,4-2.5,4.7-4.7l9.2-27.5c.3-.9,1.5-.9,1.8,0Z"/>
    </g>
    <g id="text_editable_copy" data-name="text editable copy">
      <g>
        <path class="cls-1" d="M154.8,84.1h-4.6l23.7-62.9h3.3l-.3,3.2-22.1,59.8ZM192.7,66.1h-32.8v-3.8h32.8v3.8ZM175.4,24.4l-.3-3.2h3.3l23.7,62.9h-4.6l-22.1-59.8Z"/>
        <path class="cls-1" d="M223.3,85c-3.9,0-7.2-.6-9.9-1.9-2.7-1.3-4.7-2.9-6.1-5s-2.1-4.3-2.1-6.7h4.2c.2,2.5,1,4.5,2.4,5.9,1.4,1.4,3.2,2.5,5.2,3,2.1.6,4.1.9,6.2.9s5.1-.4,7-1.3c1.9-.8,3.3-2,4.3-3.3,1-1.4,1.4-2.8,1.4-4.3s-.3-2.6-1-4c-.7-1.3-2-2.5-3.8-3.6-1.9-1.1-4.6-2.1-8.2-2.8-3.5-.7-6.4-1.6-8.8-2.7-2.4-1-4.2-2.4-5.5-4-1.3-1.7-1.9-3.8-1.9-6.3s.7-4.3,2-6.2c1.3-1.9,3.2-3.4,5.6-4.5,2.4-1.1,5.3-1.7,8.6-1.7s6.6.6,9.2,1.8c2.5,1.2,4.5,2.8,5.9,4.9,1.4,2.1,2.1,4.4,2.1,7.1h-4.3c0-2.6-1.1-4.9-3.3-6.9-2.2-2.1-5.4-3.1-9.5-3.1s-5.1.4-6.9,1.3c-1.8.9-3,2-3.8,3.3-.8,1.3-1.2,2.6-1.2,4s.3,2.7,1,3.9c.6,1.2,1.9,2.2,3.8,3.1,1.9.9,4.6,1.8,8.3,2.7,3.8.8,6.8,1.9,9.2,3,2.4,1.2,4.1,2.7,5.3,4.4,1.1,1.7,1.7,3.8,1.7,6.3s-.7,4.7-2.1,6.7c-1.4,1.9-3.3,3.4-5.9,4.5-2.5,1.1-5.5,1.6-9,1.6Z"/>
        <path class="cls-1" d="M266.5,85c-3.9,0-7.2-.6-9.9-1.9-2.7-1.3-4.7-2.9-6.1-5s-2.1-4.3-2.1-6.7h4.2c.2,2.5,1,4.5,2.4,5.9,1.4,1.4,3.2,2.5,5.2,3,2.1.6,4.1.9,6.2.9s5.1-.4,7-1.3c1.9-.8,3.3-2,4.3-3.3,1-1.4,1.4-2.8,1.4-4.3s-.3-2.6-1-4c-.7-1.3-2-2.5-3.8-3.6-1.9-1.1-4.6-2.1-8.2-2.8-3.5-.7-6.4-1.6-8.8-2.7-2.4-1-4.2-2.4-5.5-4-1.3-1.7-1.9-3.8-1.9-6.3s.7-4.3,2-6.2c1.3-1.9,3.2-3.4,5.6-4.5,2.4-1.1,5.3-1.7,8.6-1.7s6.6.6,9.2,1.8c2.5,1.2,4.5,2.8,5.9,4.9,1.4,2.1,2.1,4.4,2.1,7.1h-4.3c0-2.6-1.1-4.9-3.3-6.9-2.2-2.1-5.4-3.1-9.5-3.1s-5.1.4-6.9,1.3c-1.8.9-3,2-3.8,3.3-.8,1.3-1.2,2.6-1.2,4s.3,2.7,1,3.9c.6,1.2,1.9,2.2,3.8,3.1,1.9.9,4.6,1.8,8.3,2.7,3.8.8,6.8,1.9,9.2,3,2.4,1.2,4.1,2.7,5.3,4.4,1.1,1.7,1.7,3.8,1.7,6.3s-.7,4.7-2.1,6.7c-1.4,1.9-3.3,3.4-5.9,4.5-2.5,1.1-5.5,1.6-9,1.6Z"/>
        <path class="cls-1" d="M295.5,20.8c1,0,1.7.3,2.3.9.6.6.9,1.4.9,2.2s-.3,1.6-.9,2.2c-.6.6-1.4.9-2.3.9s-1.8-.3-2.3-.9c-.6-.6-.8-1.3-.8-2.2s.3-1.6.8-2.2c.6-.6,1.3-.9,2.3-.9ZM297.7,84.1h-4.2v-46.8h4.2v46.8Z"/>
        <path class="cls-1" d="M325,85c-3.9,0-7.2-.6-9.9-1.9s-4.7-2.9-6.1-5c-1.4-2.1-2.1-4.3-2.1-6.7h4.2c.2,2.5,1,4.5,2.4,5.9,1.4,1.4,3.2,2.5,5.2,3,2.1.6,4.1.9,6.2.9s5.1-.4,7-1.3c1.9-.8,3.3-2,4.3-3.3,1-1.4,1.4-2.8,1.4-4.3s-.3-2.6-1-4c-.7-1.3-2-2.5-3.8-3.6-1.9-1.1-4.6-2.1-8.2-2.8-3.5-.7-6.4-1.6-8.8-2.7-2.4-1-4.2-2.4-5.5-4-1.3-1.7-1.9-3.8-1.9-6.3s.7-4.3,2-6.2c1.3-1.9,3.2-3.4,5.6-4.5,2.4-1.1,5.3-1.7,8.6-1.7s6.6.6,9.2,1.8,4.5,2.8,5.9,4.9c1.4,2.1,2.1,4.4,2.1,7.1h-4.3c0-2.6-1.1-4.9-3.3-6.9-2.2-2.1-5.4-3.1-9.5-3.1s-5.1.4-6.9,1.3c-1.8.9-3,2-3.8,3.3-.8,1.3-1.2,2.6-1.2,4s.3,2.7,1,3.9c.6,1.2,1.9,2.2,3.8,3.1,1.9.9,4.6,1.8,8.3,2.7,3.8.8,6.8,1.9,9.2,3,2.4,1.2,4.1,2.7,5.3,4.4,1.1,1.7,1.7,3.8,1.7,6.3s-.7,4.7-2.1,6.7c-1.4,1.9-3.3,3.4-5.9,4.5-2.5,1.1-5.5,1.6-9,1.6Z"/>
        <path class="cls-1" d="M368.6,41h-22.9v-3.6h22.9v3.6ZM358.6,25.2v47.6c0,2.4.3,4.1.9,5.3.6,1.2,1.4,2,2.4,2.4,1,.4,2,.6,3.2.6s1.6,0,2.3-.1c.7,0,1.4-.2,2.1-.3l.3,3.6c-.6.2-1.5.4-2.5.5-1,.1-2,.2-2.9.2-2,0-3.7-.4-5.2-1.1-1.5-.7-2.7-2-3.5-3.8-.8-1.8-1.3-4.2-1.3-7.3V25.2h4.3Z"/>
        <path class="cls-1" d="M407.4,60.8h-10.7c-5.5,0-9.9,1-13,3-3.1,2-4.7,4.6-4.7,7.9s1,4.9,3,6.7,4.7,2.8,8,2.8,5.7-.5,8-1.6c2.3-1.1,4.2-2.5,5.8-4.3s2.6-3.8,3.3-6.1l1.8,2.7c-.4,1.5-1.2,3-2.2,4.5-1,1.5-2.3,3-3.9,4.3-1.6,1.3-3.5,2.3-5.7,3.2-2.2.8-4.7,1.2-7.4,1.2s-5.6-.6-7.8-1.7c-2.2-1.1-4-2.7-5.2-4.7-1.2-2-1.8-4.2-1.8-6.7,0-4.5,1.9-8,5.7-10.7,3.8-2.6,9-4,15.7-4h11.2v3.5ZM406.3,51.5c0-3.5-1.1-6.3-3.3-8.3-2.2-2-5.4-3-9.5-3s-4.8.4-6.8,1.3c-2,.9-3.6,2.1-4.8,3.6-1.2,1.5-1.7,3.2-1.7,5.1h-4.2c0-2.4.7-4.7,2.2-6.8,1.5-2.1,3.6-3.8,6.2-5.1,2.7-1.3,5.7-1.9,9.2-1.9s6.2.6,8.7,1.7c2.5,1.1,4.5,2.8,6,5,1.4,2.2,2.2,5,2.2,8.4v22.9c0,1.6.1,3.3.3,5,.2,1.7.6,3.1,1,4.2v.5h-4.6c-.3-1.1-.6-2.4-.7-4-.2-1.6-.3-3.1-.3-4.6v-24.1Z"/>
        <path class="cls-1" d="M427.2,84.1h-4.3v-46.8h4.1l.2,10v36.8ZM424.4,55.8c.3-3.5,1.2-6.7,2.8-9.6,1.6-2.9,3.7-5.3,6.4-7,2.7-1.8,5.8-2.7,9.3-2.7s5.8.6,8,1.7c2.2,1.2,3.9,3,5.1,5.5,1.2,2.5,1.8,5.9,1.8,10v30.4h-4.3v-30.4c0-3.5-.5-6.2-1.4-8.1-1-1.9-2.3-3.3-4-4.1-1.7-.8-3.8-1.2-6.1-1.2s-4.9.6-6.8,1.7c-1.9,1.2-3.5,2.6-4.8,4.4-1.3,1.8-2.3,3.7-2.9,5.7-.7,2-1,3.8-1.1,5.4l-1.9-1.7Z"/>
        <path class="cls-1" d="M486.9,41h-22.9v-3.6h22.9v3.6ZM476.9,25.2v47.6c0,2.4.3,4.1.9,5.3.6,1.2,1.4,2,2.4,2.4,1,.4,2,.6,3.2.6s1.6,0,2.3-.1c.7,0,1.4-.2,2.1-.3l.3,3.6c-.6.2-1.5.4-2.5.5-1,.1-2,.2-2.9.2-2,0-3.7-.4-5.2-1.1-1.5-.7-2.7-2-3.5-3.8-.8-1.8-1.3-4.2-1.3-7.3V25.2h4.3Z"/>
      </g>
      <g>
        <path class="cls-1" d="M426,104.6v-1.6h3c.8,0,1.4-.2,1.8-.5.4-.4.7-.9.7-1.5s-.2-1.2-.6-1.5-1-.5-1.9-.5h-2.4v11.8h-2.1v-13.5h4.5c1.4,0,2.6.3,3.4.9.8.6,1.2,1.5,1.2,2.8s-.1,1.1-.4,1.5c-.3.5-.7.8-1.2,1.1-.5.3-1.1.5-1.9.5l-.7.5h-3.4ZM425.3,110.8l1.1-1.7h3c.8,0,1.4-.2,1.8-.6s.6-.9.6-1.6,0-.9-.2-1.2c-.2-.3-.4-.6-.8-.8-.3-.2-.8-.3-1.4-.3h-2.6v-1.6h3.5l.5.6c.7,0,1.3.2,1.8.5.5.3.8.7,1.1,1.2.2.5.4,1,.4,1.6,0,1.3-.4,2.3-1.2,2.9-.8.7-1.9,1-3.3,1h-4.1Z"/>
        <path class="cls-1" d="M440.7,103.9l3.3-6.6h2.3l-4.6,8.5v5h-2.1v-5l-4.6-8.5h2.4l3.3,6.6Z"/>
        <path class="cls-1" d="M454.5,110.8h-2.2l5.1-13.5h1.4v1.6c0,0-4.3,11.9-4.3,11.9ZM462.1,107.5h-7.5v-1.7h7.5v1.7ZM458,98.9v-1.6c0,0,1.3,0,1.3,0l5.1,13.5h-2.2l-4.2-11.9Z"/>
        <path class="cls-1" d="M468.6,110.8h-2.1v-13.5h2.1v13.5ZM475.1,99h-7.1v-1.7h7.1v1.7ZM474.3,104.7h-6.2v-1.7h6.2v1.7ZM475.2,110.8h-7.1v-1.7h7.1v1.7Z"/>
        <path class="cls-1" d="M487.8,106.5c0,.9-.3,1.6-.7,2.3s-1,1.2-1.7,1.6c-.7.4-1.7.6-2.8.6s-2-.3-2.8-.8c-.8-.5-1.4-1.3-1.9-2.2-.4-.9-.7-2.1-.7-3.3v-1.2c0-1.3.2-2.4.7-3.3s1.1-1.7,1.9-2.2c.8-.5,1.8-.8,2.9-.8s1.9.2,2.7.6,1.3.9,1.7,1.6c.4.7.6,1.5.7,2.4h-2.1c-.1-.9-.4-1.6-.8-2.1-.4-.5-1.2-.8-2.2-.8s-1.4.2-1.9.6c-.5.4-.9.9-1.1,1.6s-.4,1.5-.4,2.5v1.2c0,.9.1,1.7.3,2.4.2.7.6,1.2,1.1,1.6.5.4,1.1.6,1.9.6s1.3-.1,1.7-.3.8-.5,1-1c.2-.4.4-.9.5-1.5h2.1Z"/>
      </g>
    </g>
  </g>
  <g id="margins">
    <rect class="cls-3" y="0" width="330" height="128"/>
  </g>
</svg>